<?xml version="1.0" standalone="no"?>
<!DOCTYPE svg PUBLIC "-//W3C//DTD SVG 20010904//EN"
 "http://www.w3.org/TR/2001/REC-SVG-20010904/DTD/svg10.dtd">
<svg version="1.0" xmlns="http://www.w3.org/2000/svg"
 width="1024.000000pt" height="1024.000000pt" viewBox="0 0 1024.000000 1024.000000"
 preserveAspectRatio="xMidYMid meet">
<metadata>
Created by potrace 1.14, written by Peter Selinger 2001-2017
</metadata>
<g transform="translate(0.000000,1024.000000) scale(0.100000,-0.100000)"
fill="#000000" stroke="none">
<path d="M4879 10216 c-2 -2 -61 -7 -130 -10 -69 -4 -137 -8 -150 -11 -13 -2
-62 -6 -109 -10 -47 -3 -101 -8 -120 -10 -19 -2 -62 -6 -95 -10 -61 -6 -111
-12 -175 -20 -19 -3 -55 -7 -80 -10 -114 -14 -119 -15 -245 -35 -38 -7 -83
-14 -100 -16 -16 -3 -79 -14 -140 -25 -60 -11 -123 -23 -140 -25 -16 -3 -46
-9 -65 -14 -19 -5 -49 -11 -65 -14 -77 -13 -613 -170 -670 -196 -11 -5 -63
-26 -115 -46 -184 -71 -459 -202 -635 -302 -63 -36 -310 -196 -450 -292 -88
-60 -304 -248 -420 -365 -208 -209 -416 -517 -501 -742 -52 -138 -105 -312
-119 -393 -32 -179 -37 -313 -17 -425 6 -33 14 -76 17 -95 11 -70 68 -258 111
-367 64 -162 155 -325 280 -504 123 -177 410 -455 619 -598 28 -19 52 -37 55
-41 5 -6 145 -99 172 -115 9 -5 59 -35 110 -66 170 -103 321 -170 478 -213
151 -41 190 -47 197 -28 7 18 0 25 -202 186 -180 145 -217 177 -351 311 -131
130 -200 215 -284 349 -158 251 -249 469 -267 636 -9 85 -10 431 -1 495 34
248 119 443 311 717 130 185 386 441 577 574 103 72 348 219 485 290 337 176
984 372 1411 429 21 3 57 7 79 10 22 3 51 7 65 10 14 2 59 7 100 11 41 3 84 8
95 10 123 24 986 23 1330 -1 247 -17 327 -27 510 -66 494 -105 918 -242 1250
-404 380 -186 626 -357 896 -625 166 -165 303 -355 407 -565 108 -218 137
-349 136 -625 0 -257 -46 -423 -184 -665 -29 -52 -153 -234 -177 -260 -10 -11
-36 -43 -58 -70 -51 -64 -225 -239 -290 -292 -120 -98 -166 -133 -270 -205
-434 -299 -1077 -558 -1665 -669 -63 -12 -124 -23 -135 -25 -11 -2 -40 -7 -65
-10 -47 -6 -82 -11 -115 -18 -11 -2 -45 -7 -75 -10 -30 -4 -66 -8 -80 -11 -14
-2 -70 -11 -125 -21 -55 -9 -104 -17 -110 -19 -98 -22 -157 -51 -185 -91 -23
-35 -27 -61 -22 -144 2 -28 36 -71 70 -89 95 -50 522 -157 712 -178 84 -9 598
-9 850 1 194 7 216 9 287 20 21 4 55 9 75 11 170 21 589 145 793 234 11 5 65
28 120 51 256 108 496 244 646 368 133 108 454 431 541 542 137 176 231 354
331 625 46 126 111 329 122 385 2 8 10 44 18 80 8 36 18 83 21 105 4 22 11 65
16 95 10 59 16 98 35 273 14 116 8 406 -10 497 -2 14 -7 41 -9 60 -18 138 -88
390 -148 530 -6 14 -14 34 -18 45 -56 149 -191 357 -339 525 -152 171 -399
406 -551 523 -150 116 -665 401 -955 529 -153 68 -277 119 -355 148 -73 27
-375 124 -420 135 -177 43 -311 75 -335 79 -52 10 -139 26 -165 31 -39 8 -312
53 -350 59 -19 2 -57 8 -85 11 -27 4 -61 9 -75 11 -14 2 -50 6 -80 9 -30 4
-91 10 -135 15 -44 5 -120 12 -170 16 -49 3 -106 8 -125 11 -39 5 -796 14
-801 9z"/>
<path d="M3540 7777 c-3 -3 -41 -7 -85 -10 -220 -16 -556 -87 -656 -137 -21
-11 -39 -24 -39 -28 0 -20 60 -35 307 -77 379 -64 522 -105 678 -197 94 -56
147 -96 232 -179 133 -129 169 -254 111 -379 -62 -134 -166 -217 -368 -293
-131 -49 -350 -110 -440 -121 -25 -3 -54 -8 -65 -10 -28 -5 -99 -14 -170 -21
-33 -3 -78 -8 -100 -10 -270 -28 -569 -37 -675 -22 -19 3 -60 8 -90 12 -30 3
-95 12 -145 20 -49 8 -112 17 -140 20 -27 4 -57 8 -65 10 -52 14 -107 15 -118
2 -18 -21 24 -93 77 -133 75 -55 239 -107 471 -150 14 -3 57 -11 95 -19 39 -8
84 -16 100 -19 69 -13 212 -38 240 -43 17 -2 95 -18 175 -34 298 -61 437 -114
576 -220 130 -98 208 -196 247 -308 26 -74 31 -254 11 -341 -18 -78 -59 -201
-84 -257 -11 -24 -20 -45 -20 -47 0 -2 -21 -48 -46 -103 -223 -477 -290 -666
-339 -953 -3 -19 -8 -42 -10 -50 -2 -8 -6 -31 -9 -50 -26 -194 -30 -222 -40
-345 -9 -93 -22 -386 -31 -680 -18 -555 -23 -639 -51 -749 -36 -147 -113 -253
-377 -519 -205 -208 -225 -235 -214 -304 10 -58 46 -119 86 -148 47 -32 157
-71 226 -80 218 -28 371 31 557 217 60 60 116 108 126 108 33 0 60 -23 167
-145 83 -94 93 -103 164 -146 100 -61 224 -45 386 51 56 33 108 60 116 60 19
-1 38 -17 79 -70 19 -25 46 -55 60 -67 29 -26 119 -60 174 -67 43 -5 123 16
177 46 60 34 94 123 74 199 -14 57 -114 209 -231 349 -290 352 -443 582 -556
840 -91 211 -115 298 -134 500 -8 84 -9 671 -1 730 4 25 9 68 13 95 35 284
155 637 300 886 157 269 314 471 482 619 41 36 79 70 85 75 62 55 296 215 315
215 6 0 12 3 14 8 4 10 169 94 248 127 36 14 79 32 95 40 79 35 374 126 630
194 61 16 168 44 238 62 216 55 230 92 63 172 -94 46 -225 80 -393 101 -15 2
-64 9 -109 15 -44 6 -103 13 -130 16 -110 10 -192 16 -254 19 -277 16 -302 22
-335 72 -21 33 -16 112 11 171 20 45 340 366 459 462 213 171 427 282 842 436
187 69 270 111 270 138 0 8 -16 24 -36 35 -52 29 -261 87 -421 117 -14 3 -38
7 -55 11 -173 32 -559 38 -665 9 -8 -2 -26 -6 -40 -9 -85 -14 -113 -23 -189
-53 -180 -72 -316 -165 -427 -291 -106 -120 -125 -133 -163 -113 -11 6 -71 84
-133 173 -179 257 -304 372 -513 473 -145 70 -221 86 -430 91 -100 3 -183 3
-185 1z"/>
<path d="M7810 4129 c-313 -27 -572 -132 -741 -299 -87 -87 -121 -143 -122
-207 0 -47 19 -82 65 -116 38 -28 147 -29 308 0 265 46 455 29 720 -66 239
-87 458 -92 626 -15 123 56 248 231 224 313 -18 65 -91 139 -210 215 -79 51
-212 101 -355 136 -139 34 -195 41 -330 43 -60 1 -144 -1 -185 -4z"/>
<path d="M5708 3354 c-41 -6 -101 -19 -132 -28 -56 -17 -187 -81 -223 -110
-69 -55 -164 -136 -193 -166 -167 -167 -313 -444 -345 -650 -30 -199 -37 -326
-22 -400 3 -14 10 -47 16 -75 43 -221 224 -537 416 -731 57 -58 208 -171 310
-234 230 -141 520 -241 771 -266 38 -3 83 -8 99 -9 243 -25 621 -25 751 -1 10
2 44 7 74 11 201 27 427 94 630 188 209 96 617 432 811 667 120 145 205 346
213 503 3 49 -3 83 -28 162 -38 117 -112 275 -169 360 -52 77 -175 200 -252
252 -112 75 -341 184 -415 198 -3 0 -27 6 -55 13 -90 22 -128 25 -275 26 -183
0 -299 -22 -548 -104 -107 -35 -209 -62 -245 -65 -57 -5 -66 -3 -114 27 -28
18 -107 75 -175 127 -181 137 -409 264 -515 286 -163 35 -255 39 -385 19z"/>
<path d="M5136 554 c-37 -12 -92 -34 -122 -48 -119 -56 -169 -57 -322 -6 -152
51 -239 69 -312 66 -59 -3 -83 -11 -186 -62 -149 -74 -164 -75 -334 -6 -69 27
-135 53 -148 57 -48 14 -111 5 -212 -30 -146 -51 -187 -61 -250 -64 -57 -2
-101 8 -335 79 -65 20 -118 25 -155 17 -46 -11 -76 -21 -85 -27 -30 -22 -184
-72 -222 -72 -27 0 -99 19 -181 48 -181 62 -216 62 -413 -2 -166 -54 -204 -57
-334 -24 -49 12 -101 24 -115 26 -14 3 -43 10 -65 16 -97 26 -255 3 -345 -50
-53 -31 -118 -62 -132 -62 -10 0 -59 24 -138 67 -150 83 -287 100 -394 50
-125 -59 -181 -116 -211 -212 -19 -65 -19 -84 5 -139 48 -114 103 -128 555
-141 552 -17 4812 -23 7095 -11 1926 10 2122 15 2203 45 37 14 97 78 119 127
50 114 13 315 -65 357 -44 24 -80 16 -200 -45 -137 -68 -174 -71 -274 -23
-127 62 -151 65 -493 61 -168 -2 -332 0 -365 5 -128 18 -183 23 -275 23 -85 0
-107 -4 -204 -38 -104 -36 -113 -38 -194 -32 -47 4 -88 8 -91 11 -4 2 -24 6
-46 9 -22 4 -89 15 -148 25 -179 30 -220 20 -380 -94 -27 -19 -66 -40 -88 -46
-40 -13 -32 -14 -224 39 -38 11 -94 22 -123 26 -28 3 -67 8 -85 11 -151 22
-750 37 -903 22 -80 -7 -84 -9 -171 -48 -108 -49 -136 -53 -190 -29 -26 11
-75 38 -110 60 -134 85 -224 102 -337 64z"/>
</g>
</svg>
